<svg xmlns="http://www.w3.org/2000/svg" version="1.1" xmlns:xlink="http://www.w3.org/1999/xlink" xmlns:svgjs="http://svgjs.dev/svgjs" width="1500" height="1500" viewBox="0 0 1500 1500"><rect width="1500" height="1500" fill="#ffffff"></rect><g transform="matrix(0.6666666666666666,0,0,0.6666666666666666,249.39393939393932,666.2382942527782)"><svg viewBox="0 0 396 66" data-background-color="#3b4131" preserveAspectRatio="xMidYMid meet" height="250" width="1500" xmlns="http://www.w3.org/2000/svg" xmlns:xlink="http://www.w3.org/1999/xlink"><g id="tight-bounds" transform="matrix(1,0,0,1,0.24000000000003752,0.18399875624783135)"><svg viewBox="0 0 395.5199999999999 65.72898373598511" height="65.72898373598511" width="395.5199999999999"><g><svg viewBox="0 0 536.0067771352122 89.07559854545451" height="65.72898373598511" width="395.5199999999999"><g><rect width="7.992964579947054" height="89.07559854545451" x="111.56982150828341" y="0" fill="#000000" opacity="1" stroke-width="0" stroke="transparent" fill-opacity="1" class="rect-yte-0" data-fill-palette-color="primary" rx="1%" id="yte-0" data-palette-color="#fff6db"></rect></g><g transform="matrix(1,0,0,1,140.4867771352123,0.2215810909090834)"><svg viewBox="0 0 395.52 88.63243636363634" height="88.63243636363634" width="395.52"><g id="textblocktransform"><svg viewBox="0 0 395.52 88.63243636363634" height="88.63243636363634" width="395.52" id="textblock"><g><svg viewBox="0 0 395.52 88.63243636363634" height="88.63243636363634" width="395.52"><g transform="matrix(1,0,0,1,0,0)"><svg width="395.52" viewBox="4.4 -37.9 219.98 49.3" height="88.63243636363634" data-palette-color="#fff6db"><path d="M4.4 0L4.4-34.1 8.6-34.1 8.6-19.35 25.85-19.35 25.85-34.1 30.05-34.1 30.05 0 25.85 0 25.85-15.6 8.6-15.6 8.6 0 4.4 0ZM40.5-12.45L40.5-12.45Q40.5-7.6 42.67-5.23 44.85-2.85 48.55-2.85L48.55-2.85Q52.2-2.85 54.25-5.2 56.3-7.55 56.3-12.25L56.3-12.25Q56.3-17.25 54.12-19.7 51.95-22.15 48.2-22.15L48.2-22.15Q44.45-22.15 42.47-19.73 40.5-17.3 40.5-12.45ZM36.25-12.5L36.25-12.5Q36.25-16.3 37.45-18.82 38.65-21.35 40.5-22.88 42.35-24.4 44.47-25.03 46.6-25.65 48.5-25.65L48.5-25.65Q50.3-25.65 52.42-25.08 54.55-24.5 56.35-23.03 58.15-21.55 59.35-19.07 60.55-16.6 60.55-12.8L60.55-12.8Q60.55-8.85 59.32-6.25 58.1-3.65 56.25-2.13 54.4-0.6 52.25 0.03 50.1 0.65 48.25 0.65L48.25 0.65Q46.35 0.65 44.25 0.05 42.15-0.55 40.37-2.02 38.6-3.5 37.42-6.05 36.25-8.6 36.25-12.5ZM66.4 0L66.4-20.6Q66.4-22.3 66.1-24.7L66.1-24.7 69.85-25.2 70.4-22.05Q71.75-23.05 73.05-23.8 74.35-24.55 75.85-25.1 77.35-25.65 78.9-25.65L78.9-25.65Q81.4-25.65 82.85-24.78 84.3-23.9 85-21.8L85-21.8Q87.05-23.25 89.27-24.45 91.5-25.65 93.9-25.65L93.9-25.65Q95.75-25.65 97.05-25.18 98.35-24.7 99.15-23.6 99.95-22.5 100.3-20.7 100.65-18.9 100.65-16.2L100.65-16.2 100.65 0 96.65 0 96.65-15.75Q96.65-17.25 96.6-18.43 96.55-19.6 96.25-20.43 95.95-21.25 95.27-21.7 94.6-22.15 93.35-22.15L93.35-22.15Q92.2-22.15 91.17-21.83 90.15-21.5 89.05-20.9 87.95-20.3 85.65-18.45L85.65-18.45 85.65 0 81.65 0 81.65-15.75Q81.65-17.25 81.6-18.43 81.55-19.6 81.25-20.43 80.95-21.25 80.27-21.7 79.6-22.15 78.35-22.15L78.35-22.15Q77.05-22.15 75.65-21.6 74.25-21.05 73-20.3 71.75-19.55 70.4-18.55L70.4-18.55 70.4 0 66.4 0ZM125.54-3.95L126.29-0.6Q125.14-0.25 123.92 0 122.69 0.25 121.22 0.45 119.74 0.65 118.14 0.65L118.14 0.65Q115.64 0.65 113.49-0.05 111.34-0.75 109.74-2.3 108.14-3.85 107.22-6.33 106.29-8.8 106.29-12.4L106.29-12.4Q106.29-15.65 107.19-18.13 108.09-20.6 109.67-22.28 111.24-23.95 113.37-24.8 115.49-25.65 117.99-25.65L117.99-25.65Q120.44-25.65 122.24-24.7 124.04-23.75 125.22-22.13 126.39-20.5 126.97-18.32 127.54-16.15 127.54-13.75L127.54-13.75 126.79-11.55 110.64-11.55Q110.64-10 111.04-8.45 111.44-6.9 112.42-5.65 113.39-4.4 114.97-3.63 116.54-2.85 118.89-2.85L118.89-2.85Q120.39-2.85 121.64-3.03 122.89-3.2 123.82-3.43 124.74-3.65 125.54-3.95L125.54-3.95ZM110.79-14.75L123.39-14.75Q123.39-15.1 123.24-16.3 123.09-17.5 122.54-18.8 121.99-20.1 120.84-21.13 119.69-22.15 117.79-22.15L117.79-22.15Q115.69-22.15 114.34-21.28 112.99-20.4 112.19-19.2 111.39-18 111.09-16.75 110.79-15.5 110.79-14.75L110.79-14.75ZM133.49 0L133.49-34.1 137.69-34.1 137.69-19.35 154.94-19.35 154.94-34.1 159.14-34.1 159.14 0 154.94 0 154.94-15.6 137.69-15.6 137.69 0 133.49 0ZM184.59-3.95L185.34-0.6Q184.19-0.25 182.96 0 181.74 0.25 180.26 0.45 178.79 0.65 177.19 0.65L177.19 0.65Q174.69 0.65 172.54-0.05 170.39-0.75 168.79-2.3 167.19-3.85 166.26-6.33 165.34-8.8 165.34-12.4L165.34-12.4Q165.34-15.65 166.24-18.13 167.14-20.6 168.71-22.28 170.29-23.95 172.41-24.8 174.54-25.65 177.04-25.65L177.04-25.65Q179.49-25.65 181.29-24.7 183.09-23.75 184.26-22.13 185.44-20.5 186.01-18.32 186.59-16.15 186.59-13.75L186.59-13.75 185.84-11.55 169.69-11.55Q169.69-10 170.09-8.45 170.49-6.9 171.46-5.65 172.44-4.4 174.01-3.63 175.59-2.85 177.94-2.85L177.94-2.85Q179.44-2.85 180.69-3.03 181.94-3.2 182.86-3.43 183.79-3.65 184.59-3.95L184.59-3.95ZM169.84-14.75L182.44-14.75Q182.44-15.1 182.29-16.3 182.14-17.5 181.59-18.8 181.04-20.1 179.89-21.13 178.74-22.15 176.84-22.15L176.84-22.15Q174.74-22.15 173.39-21.28 172.04-20.4 171.24-19.2 170.44-18 170.14-16.75 169.84-15.5 169.84-14.75L169.84-14.75ZM192.04 0L192.04-37.45 196.04-37.9 196.04 0 192.04 0ZM203.28 11.4L203.28-19.35Q203.28-21.15 203.03-24.7L203.03-24.7 206.73-25.2 207.18-22.5Q208.18-23.35 209.26-24.03 210.33-24.7 211.61-25.18 212.88-25.65 214.33-25.65L214.33-25.65Q216.38-25.65 218.21-24.95 220.03-24.25 221.41-22.7 222.78-21.15 223.58-18.68 224.38-16.2 224.38-12.6L224.38-12.6Q224.38-8.95 223.31-6.43 222.23-3.9 220.51-2.33 218.78-0.75 216.61-0.05 214.43 0.65 212.18 0.65L212.18 0.65Q209.78 0.6 207.28 0.05L207.28 0.05 207.28 10.9 203.28 11.4ZM212.18-2.85L212.18-2.85Q214.28-2.85 215.78-3.6 217.28-4.35 218.26-5.68 219.23-7 219.68-8.72 220.13-10.45 220.13-12.4L220.13-12.4Q220.13-14.15 219.81-15.9 219.48-17.65 218.76-19.03 218.03-20.4 216.83-21.28 215.63-22.15 213.88-22.15L213.88-22.15Q212.58-22.15 211.43-21.68 210.28-21.2 209.26-20.53 208.23-19.85 207.28-19L207.28-19 207.28-3.65Q207.83-3.45 208.51-3.28 209.18-3.1 210.11-2.98 211.03-2.85 212.18-2.85Z" opacity="1" transform="matrix(1,0,0,1,0,0)" fill="#000000" class="wordmark-text-0" data-fill-palette-color="primary" id="text-0"></path></svg></g></svg></g></svg></g></svg></g><g transform="matrix(1,0,0,1,0,0.2215810909090834)"><svg viewBox="0 0 90.6458304613016 88.63243636363634" height="88.63243636363634" width="90.6458304613016"><g><svg xmlns="http://www.w3.org/2000/svg" xmlns:xlink="http://www.w3.org/1999/xlink" version="1.1" x="0" y="0" viewBox="38.28994581719334 38.548828993691075 23.42037637390665 22.900171006308923" enable-background="new 0 0 100 100" xml:space="preserve" height="88.63243636363634" width="90.6458304613016" class="icon-icon-0" data-fill-palette-color="accent" id="icon-0"><path fill="#000000" d="M61.283 49.143L51.102 38.961A1.44 1.44 0 0 0 49.948 38.557 1.43 1.43 0 0 0 48.792 38.96L38.717 49.036A1.458 1.458 0 0 0 40.779 51.098L40.884 50.993V59.992C40.884 60.797 41.537 61.449 42.342 61.449H57.549C58.355 61.449 59.007 60.797 59.007 59.992V50.992L59.22 51.204A1.454 1.454 0 0 0 61.282 51.204 1.455 1.455 0 0 0 61.283 49.143M56.092 58.532H43.801V48.076L49.947 41.93 56.093 48.076V58.532z" data-fill-palette-color="accent"></path></svg></g></svg></g></svg></g><defs></defs></svg><rect width="395.5199999999999" height="65.72898373598511" fill="none" stroke="none" visibility="hidden"></rect></g></svg></g></svg>